<svg width="213px" height="46px" viewBox="0 12 213 46" version="1.1" xmlns="http://www.w3.org/2000/svg" xmlns:xlink="http://www.w3.org/1999/xlink">
  <!-- Generator: Sketch 41.2 (35397) - http://www.bohemiancoding.com/sketch -->
  <desc>Created with Sketch.</desc>
  <defs></defs>
  <path d="M37.4524604,30.3330259 C37.4524604,30.3330259 65.1963103,16.1736501 128.241476,22.1122246 C186.311629,27.5821751 200.875579,46.8766136 208.481541,51 C209.133163,51.3532606 211.681749,52.604279 211.681749,52.604279 L210.229527,40.9944797 L211.681749,52.604279 L211.681749,53.4530139 L200.954203,56.0816248" id="Path-2" stroke="#3F3F3F" stroke-width="2" fill="none"></path>
  <g id="text-page-doodle" stroke="none" stroke-width="1" fill="none" fill-rule="evenodd" transform="translate(0.000000, 12.000000)">
    <g id="Capa_1" fill="#3F3F3F">
      <g id="Group">
        <path d="M1.82916364,38.1468431 C9.56009091,39.6185196 17.3472727,38.6396961 25.1273273,38.1932353 C25.8956727,38.1495196 26.3429091,37.6302843 26.4252545,36.8934902 C27.2261818,29.7375 26.4564364,22.4461569 27.5480545,15.3317157 C28.2028727,11.0650392 28.2769455,7.03669608 24.9341273,3.89439216 C19.0363091,-1.64985294 8.94676364,1.07033333 1.75432727,0.013254902 C1.60338182,-0.00892156863 1.46287273,-0.000637254902 1.32923636,0.0195 C0.720109091,0.0666568627 0.133763636,0.479852941 0.111618182,1.26660784 C-0.227563636,13.1517941 0.480581818,25.0196471 0.876527273,36.8936176 C0.8946,37.4377059 1.25529091,38.0373627 1.82916364,38.1468431 Z M19.0681273,3.77662745 C20.1812545,4.10940196 21.2639636,4.54604902 22.2960182,5.14914706 C24.6551455,6.5265098 25.3149273,8.71369608 25.3433091,11.0872157 C25.1730182,11.0601961 24.9847818,11.0692451 24.7819091,11.1239216 C22.4511636,11.7560784 20.1424364,12.034049 17.7839455,11.7040784 C18.1772182,9.05615686 18.6921636,6.4282451 19.0681273,3.77662745 Z M2.68125455,2.69864706 C7.18365455,3.07641176 12.0556545,2.49281373 16.5566545,3.20959804 C16.1323273,6.40606863 15.4532,9.5615 15.0302727,12.7586078 C14.959,13.3014216 15.4775091,13.8996765 15.9835455,14.0119608 C19.0854364,14.7009608 22.1286545,14.4923235 25.1793818,13.7021275 C25.0118909,15.0947843 24.7633273,16.4763529 24.6290545,17.7297059 C23.9915455,23.6788627 24.4581273,29.6987549 23.9374545,35.668049 C17.1119455,36.108902 10.2192364,36.9089118 3.43241818,35.7962647 C3.04818182,24.7651275 2.44249091,13.7388333 2.68125455,2.69864706 Z" id="Shape"></path>
        <path d="M6.24909091,19.2907255 C7.68205455,18.6265784 9.06932727,17.9438235 10.6649455,17.820451 C12.4537636,17.682549 13.6104182,19.2235588 15.1333636,19.7891863 C17.3340364,20.6079314 19.0127636,19.8543137 21.1573091,19.1472157 C22.2122727,18.7999118 21.7602,17.1258431 20.6969636,17.4765882 C18.5939091,18.1697941 17.0238727,18.9218824 14.9028727,17.6797451 C13.7718,17.017 12.8891636,16.4618235 11.6009091,16.1677941 C9.48054545,15.6846275 7.22310909,16.9379804 5.37625455,17.7947059 C4.36341818,18.2641078 5.24325455,19.7573235 6.24909091,19.2907255 Z" id="Shape"></path>
        <path d="M6.24909091,25.8368627 C7.68205455,25.1727157 9.06932727,24.4899608 10.6649455,24.3665882 C12.4537636,24.2286863 13.6104182,25.7689314 15.1333636,26.3353235 C17.3340364,27.1540686 19.0127636,26.400451 21.1573091,25.6933529 C22.2122727,25.346049 21.7602,23.6719804 20.6969636,24.0227255 C18.5939091,24.7159314 17.0238727,25.4680196 14.9028727,24.2258824 C13.7718,23.5631373 12.8891636,23.0079608 11.6009091,22.7139314 C9.48054545,22.2307647 7.22310909,23.4841176 5.37625455,24.3408431 C4.36341818,24.8094804 5.24325455,26.3033333 6.24909091,25.8368627 Z" id="Shape"></path>
        <path d="M6.24909091,32.3821078 C7.68205455,31.7179608 9.06932727,31.0352059 10.6649455,30.9118333 C12.4537636,30.7739314 13.6104182,32.3141765 15.1333636,32.8805686 C17.3340364,33.6993137 19.0127636,32.9456961 21.1573091,32.238598 C22.2122727,31.8912941 21.7602,30.2172255 20.6969636,30.5679706 C18.5939091,31.2611765 17.0238727,32.0132647 14.9028727,30.7711275 C13.7718,30.1083824 12.8891636,29.5532059 11.6009091,29.2591765 C9.48054545,28.7760098 7.22310909,30.0293627 5.37625455,30.8860882 C4.36341818,31.3554902 5.24325455,32.8487059 6.24909091,32.3821078 Z" id="Shape"></path>
      </g>
    </g>
  </g>
</svg>
